<?xml version="1.0" encoding="UTF-8" standalone="no"?>
<svg width="1273px" height="665px" viewBox="0 0 1273 665" version="1.1" xmlns="http://www.w3.org/2000/svg" xmlns:xlink="http://www.w3.org/1999/xlink">
    <!-- Generator: Sketch 40 (33762) - http://www.bohemiancoding.com/sketch -->
    <title>flat-world-map</title>
    <desc>Created with Sketch.</desc>
    <defs></defs>
    <g id="landing" stroke="none" stroke-width="1" fill="none" fill-rule="evenodd" opacity="0.0811567164">
        <g id="Desktop-HD" transform="translate(-84.000000, -180.000000)" fill="#FFFFFF">
            <g id="flat-world-map" transform="translate(84.000000, 180.000000)">
                <path d="M423.629042,420.155642 L475.994342,445.618544 L446.071313,506.997868 L416.117115,511.55373 L411.566321,535.581223 L350.224113,588.067254 L321.797236,641.988694 L342.712186,664.51837 L308.394212,655.500259 L296.331491,625.512699 L330.742974,486.184442 L302.284927,460.72154 L288.913074,406.831304 L304.996702,380.463471 L290.315716,382.678993 L269.431936,355.780682 L251.446949,346.793775 L209.554709,331.784393 L175.080886,277.862953 L154.165936,238.919691 L154.165936,186.43366 L119.754454,128.018767 L76.3037226,101.026843 L49.372997,116.005021 L0,140.032514 L31.3880101,114.569612 L11.9068718,110.044954 L4.51962409,84.5820522 L26.9307256,66.5770344 L4.51962409,63.6126034 L8.94573872,47.1366079 L25.4345742,47.1366079 L10.47306,24.6381369 L50.8691484,0.610643478 L124.211738,41.1141323 L151.235973,15.6512302 L209.554709,50.1010389 L321.797236,38.0248832 L321.797236,95.0043675 L276.912693,103.96007 L267.904614,128.018767 L311.324176,174.419914 L321.797236,172.922096 L329.215653,114.507203 L357.767209,113.04059 L369.642911,145.930172 L384.635595,136.97447 L417.550927,210.461154 L371.170233,231.336989 L335.262598,250.871029 L306.835721,289.845496 L306.835721,309.348331 L296.331491,310.814944 L288.913074,289.845496 L248.485816,295.805562 L239.508907,321.23726 L249.950797,336.246642 L264.881142,324.201691 L279.873826,325.668304 L272.393069,347.043412 L290.315716,348.322798 L296.331491,370.75886 L308.425382,374.784245 L317.339951,360.211726 L377.217178,366.202997 L417.550927,396.190557 L423.629042,420.155642 L423.629042,420.155642 Z M1132.55546,406.8001 L1129.3138,432.200593 L1107.83779,424.33705 L1111.79636,410.638258 L1088.23197,408.672372 L1057.71672,437.13091 L1025.33127,448.89502 L1033.18607,492.955826 L1030.19377,501.78671 L1042.06947,508.620504 L1090.10216,496.731575 L1108.74171,507.621958 L1117.56277,502.754051 L1123.4227,520.509432 L1147.89101,527.436839 L1165.59547,516.546456 L1175.35162,463.685971 L1148.76377,437.13091 L1132.55546,406.8001 L1132.55546,406.8001 Z M1013.58025,382.17972 L1039.04599,387.047628 L1050.82819,350.787956 L1043.90849,344.82789 L1009.59051,366.452634 L1013.58025,382.17972 L1013.58025,382.17972 Z M1091.97235,372.287882 L1118.4667,399.810284 L1133.6464,400.808829 L1140.03622,394.942376 L1161.60573,408.609963 L1152.78467,389.94965 L1112.54443,370.384405 L1091.97235,372.287882 L1091.97235,372.287882 Z M1140.06739,149.456284 L1133.17885,149.456284 L1132.21259,184.77982 L1114.57047,222.131651 L1092.00352,238.794873 L1091.03726,253.523415 L1132.21259,228.996649 L1134.17629,203.440133 L1147.82867,190.739887 L1137.07508,181.971412 L1142.93501,161.282804 L1140.06739,149.456284 L1140.06739,149.456284 Z M1246.07595,505.874504 L1249.00591,533.303292 L1218.61534,561.824239 L1238.22115,563.790125 L1255.76976,537.203859 L1269.48448,518.605955 L1260.66342,517.638615 L1246.07595,505.874504 L1246.07595,505.874504 Z M590.325246,92.6640272 L590.325246,121.278588 L610.180423,112.572522 L615.79099,103.835251 L594.314983,62.4580355 L581.628866,71.2889195 L582.408112,82.3353255 L570.47007,96.7518216 L569.659655,111.792408 L583.997773,111.792408 L590.325246,92.6640272 L590.325246,92.6640272 Z M769.738738,429.517003 L768.959492,461.376835 L781.739119,466.931242 L794.394067,428.768094 L791.152405,412.791371 L769.738738,429.517003 L769.738738,429.517003 Z M1210.76054,96.3461626 L1211.7268,118.969452 L1186.22989,150.423625 L1185.26363,115.03768 L1218.553,74.7526231 L1198.04325,77.7794631 L1171.48657,99.3417981 L1139.06995,97.4071168 L1114.60164,120.997747 L1132.21259,133.729198 L1111.67168,190.677478 L1094.06073,193.704318 L1083.21363,209.4002 L1088.07612,230.026398 L1075.35884,236.828988 L1071.40027,218.199879 L1060.55317,203.408929 L1045.84102,219.042402 L1057.59204,252.400051 L1040.97852,282.918088 L1004.63451,284.85277 L996.842056,297.64663 L1013.45557,322.173396 L995.844622,336.933142 L977.766126,318.116806 L977.111559,335.840983 L992.883489,353.56516 L999.772019,384.956924 L1019.44018,391.94674 L1045.99686,402.74351 L996.935566,393.943831 L976.301144,374.316177 L957.723931,347.729912 L983.096165,360.523772 L971.345142,339.023846 L968.945066,309.660377 L957.723931,312.499989 L944.009209,283.105316 L905.701499,309.660377 L905.701499,326.479622 L891.955607,340.147209 L874.406998,295.961585 L854.83235,272.370955 L807.70358,263.540071 L794.020029,251.83837 L787.100328,255.738937 L796.856483,279.329567 L812.503733,271.466023 L833.138155,287.161905 L772.388173,323.483986 L740.906653,261.636594 L734.329821,262.791162 L766.403567,336.246642 L797.791577,321.486896 L788.035423,355.9055 L756.616243,384.301629 L761.478735,426.552572 L743.836616,440.251363 L711.575851,501.131415 L679.159237,507.029072 L650.73236,438.285478 L657.65206,406.893713 L639.978772,351.817706 L580.132715,355.718273 L546.718666,323.327964 L552.640932,270.311456 L585.026377,231.024944 L647.771227,220.228174 L651.729794,236.860192 L677.257878,253.523415 L687.014032,239.824623 L725.976309,249.810075 L736.044161,243.72519 L740.501446,229.059058 L713.60189,224.5344 L704.90551,209.493813 L698.578036,206.248541 L693.029808,225.314513 L681.029426,210.180313 L681.808672,197.511271 L665.787384,184.811025 L656.280588,180.03673 L657.091004,192.768181 L676.97735,206.279746 L666.628969,218.262288 L652.384361,199.165112 L642.06715,187.182569 L618.222236,199.165112 L601.546382,225.408127 L576.142978,221.445151 L574.553317,189.647728 L607.06344,191.925659 L596.808569,175.324845 L590.418756,161.719667 L615.042915,153.731306 L628.539447,135.507856 L639.667074,134.665334 L637.266997,124.367837 L644.404886,114.788044 L649.984284,130.671153 L680.935917,131.451267 L689.632297,109.140023 L701.632678,113.165408 L697.611771,98.0936166 L716.064306,92.1959592 L710.329059,85.3933701 L693.622034,90.0740507 L687.762108,75.8135773 L687.045202,75.7199637 L687.543919,74.7214185 L685.112673,68.7301474 L691.814185,63.9558533 L697.674111,49.0088802 L691.471317,48.072744 L681.122936,60.8041951 L672.426556,79.807758 L682.058031,90.1052552 L672.426556,115.568157 L658.119608,121.153769 L650.233643,95.7532764 L633.526619,105.301865 L625.609484,100.558775 L626.35756,75.9071909 L640.695678,64.8607849 L652.633719,35.4349066 L682.837276,18.8028885 L758.205904,32.6577028 C845.138536,23.5147735 1002.889,6.75793724 1002.889,6.75793724 L1263.15701,43.5480862 L1272.94433,71.0392832 L1237.56659,90.7293459 L1210.76054,96.3461626 L1210.76054,96.3461626 Z M764.284019,195.888635 L723.015176,174.419914 L710.329059,196.668749 L715.877287,206.935041 L739.78454,203.00327 L757.270809,207.777564 L764.284019,195.888635 L764.284019,195.888635 Z M807.85943,222.849355 L803.994372,198.228975 L795.983728,186.308842 L805.615202,182.314662 L805.615202,170.425733 L780.959874,183.937298 L789.625084,206.217337 L785.728856,221.289128 L807.85943,222.849355 L807.85943,222.849355 Z M452.242938,29.7244764 L430.143534,23.6395917 L402.807601,52.8782427 L437.93599,144.463558 L454.549505,148.582557 L455.858637,118.813429 L467.110943,111.886022 L467.765509,100.58998 L479.360682,78.7780083 L471.256529,62.3332174 L452.242938,29.7244764 L452.242938,29.7244764 Z" id="Shape"></path>
            </g>
        </g>
    </g>
</svg>