<?xml version="1.0" encoding="UTF-8" standalone="no"?>
<svg width="491px" height="472px" viewBox="0 0 491 472" version="1.1" xmlns="http://www.w3.org/2000/svg" xmlns:xlink="http://www.w3.org/1999/xlink">
    <!-- Generator: Sketch 40 (33762) - http://www.bohemiancoding.com/sketch -->
    <title>runners</title>
    <desc>Created with Sketch.</desc>
    <defs></defs>
    <g id="landing" stroke="none" stroke-width="1" fill="none" fill-rule="evenodd">
        <g id="Desktop-HD" transform="translate(-318.000000, -374.000000)">
            <g id="runners" transform="translate(318.000000, 374.000000)">
                <path d="M487.652,125.923 C482.834,117.825 472.357,115.174 464.242,119.962 L406.851,154.073 L399.704,133.675 C405.037,116.869 397.1,98.424 380.585,91.17 C373.45,88.021 360.388,81.683 352.225,81.442 L275.265,83.161 C266.847,83.353 259.825,89.637 258.701,97.983 L250.121,162.194 L277.838,145.725 C280.842,143.927 284.054,142.84 287.299,142.102 L290.657,117.006 L314.968,116.467 L303.529,142.519 C311.192,144.745 318.07,149.677 322.456,157.068 C331.259,171.922 326.824,190.832 312.766,200.449 C309.103,202.995 279.508,220.444 275.556,222.798 L262.879,284.632 L205.711,267.6 C199.716,265.825 193.659,266.983 188.712,270.019 L222.788,300.787 C228.526,305.97 232.108,312.797 233.714,320.1 L272.916,331.78 C284.839,335.307 297.179,327.884 299.686,315.754 L311.157,259.851 L353.783,296.66 L333.04,407.078 C330.872,418.574 338.438,429.628 349.91,431.788 C361.43,433.941 372.469,426.367 374.622,414.903 L397.548,292.827 C398.914,285.579 396.408,278.158 390.929,273.209 L353.639,239.524 L379.73,180.092 L381.482,185.072 C385.114,195.451 397.228,199.548 406.339,194.126 L481.692,149.347 C489.806,144.52 492.472,134.037 487.652,125.923 L487.652,125.923 Z" id="XMLID_58_" fill="#4B494F"></path>
                <path d="M175.118,278.574 L181.673,263.656 L193.066,237.709 L201.228,219.127 L202.98,224.132 C206.578,234.357 218.597,238.648 227.835,233.178 L303.189,188.399 C311.317,183.57 313.986,173.087 309.15,164.974 C304.329,156.876 293.871,154.232 285.741,159.013 L228.334,193.122 L221.201,172.724 C226.517,155.919 218.597,137.474 202.081,130.22 C200.857,129.681 188.518,124.258 188.407,124.21 C185.015,122.716 177.271,120.411 171.664,120.539 L96.777,122.209 C88.342,122.404 81.32,128.685 80.213,137.032 L69.98,213.622 C68.742,222.98 75.297,231.577 84.663,232.823 C94.032,234.099 102.626,227.455 103.864,218.153 L112.155,156.055 L136.464,155.515 L101.196,235.842 C97.983,243.169 97.051,250.858 97.79,258.286 L84.358,323.679 L27.21,306.649 C16.011,303.338 4.233,309.686 0.89,320.892 C-2.451,332.082 3.927,343.868 15.126,347.209 L94.4,370.828 C106.161,374.338 118.66,367.036 121.169,354.801 C130.888,307.5 128.478,319.27 132.642,298.897 L175.266,335.714 L154.538,446.133 C152.388,457.613 159.953,468.666 171.425,470.836 C182.96,472.988 193.968,465.38 196.121,453.933 L219.032,331.865 C220.396,324.619 217.889,317.196 212.428,312.255 L175.118,278.574 L175.118,278.574 Z" id="XMLID_59_" fill="#FFFFFF"></path>
                <path d="M199.62,117.704 C220.043,126.694 244.079,117.479 253.141,96.858 C262.169,76.317 252.817,52.36 232.286,43.339 C211.735,34.31 187.796,43.652 178.766,64.194 C169.528,85.209 179.861,109.029 199.62,117.704 L199.62,117.704 Z" id="XMLID_60_" fill="#FFFFFF"></path>
                <path d="M378.124,78.655 C398.657,87.684 422.63,78.357 431.659,57.808 C440.688,37.265 431.337,13.311 410.804,4.289 C390.239,-4.734 366.283,4.602 357.271,25.143 C348.239,45.685 357.589,69.632 378.124,78.655 L378.124,78.655 Z" id="XMLID_61_" fill="#4B494F"></path>
            </g>
        </g>
    </g>
</svg>